/* XPM */
static char * button_pause_xpm[] = {
"35 24 64 1",
" 	c None",
".	c #020202",
"+	c #9E9E9E",
"@	c #3E3E3E",
"#	c #DEDEDE",
"$	c #7A7A7A",
"%	c #666666",
"&	c #C6C6C6",
"*	c #121212",
"=	c #B6B6B6",
"-	c #565656",
";	c #1E1E1E",
">	c #929292",
",	c #E6E6E6",
"'	c #262626",
")	c #424242",
"!	c #AAAAAA",
"~	c #EAEAEA",
"{	c #CACACA",
"]	c #868686",
"^	c #4E4E4E",
"/	c #F6F6F6",
"(	c #6A6A6A",
"_	c #2A2A2A",
":	c #BEBEBE",
"<	c #2E2E2E",
"[	c #5E5E5E",
"}	c #CECECE",
"|	c #6E6E6E",
"1	c #A2A2A2",
"2	c #F2F2F2",
"3	c #DADADA",
"4	c #323232",
"5	c #828282",
"6	c #4A4A4A",
"7	c #0E0E0E",
"8	c #363636",
"9	c #969696",
"0	c #727272",
"a	c #8E8E8E",
"b	c #AEAEAE",
"c	c #D6D6D6",
"d	c #464646",
"e	c #5A5A5A",
"f	c #525252",
"g	c #FBFBFB",
"h	c #C2C2C2",
"i	c #A6A6A6",
"j	c #EEEEEE",
"k	c #161616",
"l	c #7E7E7E",
"m	c #8A8A8A",
"n	c #626262",
"o	c #9A9A9A",
"p	c #767676",
"q	c #B2B2B2",
"r	c #3A3A3A",
"s	c #BABABA",
"t	c #0A0A0A",
"u	c #E2E2E2",
"v	c #1A1A1A",
"w	c #D2D2D2",
"x	c #222222",
"y	c #060606",
"        0rk.............kr0        ",
"      dkpsu/gg/////////2#=0kd      ",
"    5kmj/////2222222jjj~~~,#lk5    ",
"   0xw//22j,uu~jjj~~u3wc33333:x0   ",
"  5x#/222~ch{hh3,,uws:hb=h&&{whx]  ",
"  k}22jj~chg2#&=wc}b,g~w++!bqs:1;  ",
" dl2j~,u3=~256|os:bbg&-^lllppm++ff ",
" *,~,#w{:+gcdd[l+19=/])^[66)@8f5lv ",
"0%~#w&=bi]g}@^%pma5bj$)-(6^6)8_rpr$",
"r13{=io>]|/&@^(n---1~0d[0^-f^d8x)e^",
"khhbole6dd/:@f0n^ff1~(dnl-[[-^)_v[4",
".h!9er)d^62q@-$(-ee1,n6(me%%ne^r;@'",
".!9d4@6^f^~!@-$0n%%1#ed%an|0|([6_7_",
"k][x8d^-ef,+@fl$|p013fd%9($ll$|-8kr",
"r[<xr6-[ne,brf5]$5li#[)%+0]mm]$nrv[",
"04v'@^[%(n,=@-mm]am!#%d|i$>99>5%r'm",
" y7x@-%0p(~q@[9>ao>!#%6$b5o+1o]%84 ",
" 6tx@-($5p,:d(19oiob#|f]=mi!i+5e<| ",
"  *vre|5m5}h[lboib!135(oqobb!9p))  ",
"  m74-0]99+{9ibo=s=1&i+q+!qb1an@+  ",
"   $vd0a+i+o+++=:hhsi1i+b=bi9$d>   ",
"    a'dm1b=qq=:h&&&&&:s::=!o(^+    ",
"      [_e]is:hhh&&&&&&&hb>(6p      ",
"        ]e@44488rrr@@))df|>        "};
