/* XPM */
static char * button_cross_xpm[] = {
"35 24 64 1",
" 	c None",
".	c #030402",
"+	c #D8EBD8",
"@	c #737F73",
"#	c #0B1C08",
"$	c #905957",
"%	c #D1E0D0",
"&	c #0C2E09",
"*	c #C0A2A0",
"=	c #804342",
"-	c #113A0C",
";	c #B69492",
">	c #753837",
",	c #A8B8A8",
"'	c #174412",
")	c #AB8684",
"!	c #722F2D",
"~	c #642221",
"{	c #99A799",
"]	c #66514F",
"^	c #F5E8E4",
"/	c #164C10",
"(	c #BACDBA",
"_	c #BED0BE",
":	c #531F1E",
"<	c #909D90",
"[	c #6A2B29",
"}	c #B4C4B4",
"|	c #7F7877",
"1	c #A17774",
"2	c #16520F",
"3	c #9E8A86",
"4	c #602C29",
"5	c #413B3A",
"6	c #E8F9E8",
"7	c #40100E",
"8	c #5E5E5E",
"9	c #726868",
"0	c #441F1D",
"a	c #899489",
"b	c #C6AEAB",
"c	c #F1E1DD",
"d	c #FAF0ED",
"e	c #5A5653",
"f	c #836D6A",
"g	c #330F0C",
"h	c #16560F",
"i	c #464545",
"j	c #986A68",
"k	c #828E82",
"l	c #363030",
"m	c #4E4D4D",
"n	c #0C1208",
"o	c #836362",
"p	c #E8DAD7",
"q	c #292423",
"r	c #B5A9A5",
"s	c #F6FCF5",
"t	c #8D8583",
"u	c #CFBAB8",
"v	c #1A6212",
"w	c #AB9F9D",
"x	c #DACFCA",
"y	c #525252",
"        |5n.............n5|        ",
"      infbpdddddddddddddpboni      ",
"    tnt^dddddddddd^^^^^^^ccp|nt    ",
"   |qxdddd^ccc^^^^^^cpxxxpxxpuq|   ",
"  tqpdd^^cuuuuxcccppubub*uuuxxuqt  ",
"  nxd^^^cupdssuuxxxbbsssp3wrruuwq  ",
" i|d^^cpx*xup^dbru**s^xuu3foftwwey ",
" nc^cpxxu;1$$bcs*1wdc;=$1$[~~:>||# ",
"|8cpxubrw1;1=>b^su^p)>$1;=[[~:7l|5|",
"5wxubw<3tf1;1$=uccx*=$1;j!!![~:g5em",
"nuurw|]4[[~j;1$$;b)$$1;1>===>!~7g8l",
".ur3]:~[!!!!1*1$$j$$1b)======>!:g5q",
".r350~[!!>>>!;)jj$$$;*=$$$$$$==[7.q",
"nt8g:~!>>===1x)j$$$$;x)$jjjjj$$>0n5",
"58q7:[>====)puj$$j$$juc)jj111jo=:g8",
"|lg7:!==$$)^xj=$1)1j=juc;11))1j=4qt",
" ..g:>=$$j^u$=$)*;*)j==*p1);;)1]0l ",
" m.g:>=oj;x$=$1*;j;b;1$$*;;;;)j]l9 ",
"  ng:>$j1))j1)*)););b*;)1);*;)o5i  ",
"  tn0=$1)1));b;;*bb;;ub*;)**;1]5w  ",
"   |n5o1;;));)*bbuuu*;;;;**;)fia   ",
"    kq51;*b*bbuuuuuuuuubb*;)omw    ",
"      8q]1wbuuuuuuuuuuuu*)om|      ",
"        te5lllll55555iiiy9a        "};
