/* XPM */
static char * button_play_xpm[] = {
"35 24 64 1",
" 	c None",
".	c #020302",
"+	c #2A6423",
"@	c #77A073",
"#	c #D6EAD6",
"$	c #B1CCAF",
"%	c #112010",
"&	c #696969",
"*	c #133A0F",
"=	c #90A090",
"-	c #53894D",
";	c #363E36",
">	c #90B28D",
",	c #5B645A",
"'	c #747B73",
")	c #DFEDDF",
"!	c #CCE1CC",
"~	c #447E3D",
"{	c #3D3E3D",
"]	c #718571",
"^	c #A3B2A2",
"/	c #3A563A",
"(	c #212321",
"_	c #BCD0BA",
":	c #839382",
"<	c #EAF2EA",
"[	c #486C45",
"}	c #A4B8A3",
"|	c #164212",
"1	c #131611",
"2	c #547E51",
"3	c #2C6A27",
"4	c #6E8A6B",
"5	c #2E2E2D",
"6	c #7DA678",
"7	c #484B48",
"8	c #A4C1A1",
"9	c #111211",
"0	c #C6DAC5",
"a	c #264226",
"b	c #E3F6E3",
"c	c #12330E",
"d	c #1D4A16",
"e	c #61915C",
"f	c #8EAC8A",
"g	c #40743B",
"h	c #B4C5B4",
"i	c #2B5327",
"j	c #5D755B",
"k	c #3E523E",
"l	c #9FAD9F",
"m	c #6A9765",
"n	c #F7FEF7",
"o	c #97B995",
"p	c #34722D",
"q	c #C0D6C0",
"r	c #545554",
"s	c #EEFBEE",
"t	c #799377",
"u	c #ADC4AA",
"v	c #20571A",
"w	c #9AA99A",
"x	c #323632",
"y	c #83AC7F",
"        759.............957        ",
"      x1'h)snnnnnnnnsssb#u'1x      ",
"    r1:<nssssssssssbbbbbbb)#41r    ",
"   7(0ssssb##)bbbbbbb)####!!#$(7   ",
"  r(!ssbbb#!0$!#)))#!!0_____q0$(r  ",
"  10sbbbbb!_nb$uq00q_hu}}^^}}hhw%  ",
" x]sbbb##!_$nnn)8>}}^ww==:44]:wwr{ ",
" 9)b)#!q_h}8nsssn!ft::::2pp+vv[]]1 ",
"7&b#0_u}lw=}nbbbbssqt2gpppp3+v|a';r",
"5w!_ul==:t]fsb###)<<<u~pg~~pp3v*7,{",
"9$_}=][33336<$y6oq#)))#>~~~~~p+d%,5",
".$^=[i+3ppp6$~3ppp-y$!!!0y~~~~pvc{(",
".^=kd+3ppgg@m~~-------myy>e---~+|15",
"9:,cv+pg~~~@e-m@yyyyy66yymemmm-gd%{",
"5,x*vpg~~--6mmyo8$$$$u8yem@@@@m~i%r",
"7x%*vp~--ee6@y8$q0!!0om@6yyyy6@2i(&",
" .1*vg2eemmy>o$0!##$6@yf>>>>>f@2ax ",
" {9cvg-em@@yu$0!#qy6>oooooooofm[x, ",
"  9%ig-m@66f$q!q>yo888888888of4k{  ",
"  r9a[-@y>f>__>fou$$$$$$uu88>@j{'  ",
"   r1/4@foooof8u$_______$u8of47'   ",
"    ,(kt>8u88$$_________$uofj7'    ",
"      75,t^u$__________$8=j7&      ",
"        &7{xxxxx{{{{{{{7r&'        "};
