/* XPM */
static char * job_jigdo_xpm[] = {
"15 12 137 2",
"  	c None",
". 	c #A8817B",
"+ 	c #9D7D78",
"@ 	c #A48681",
"# 	c #AA908B",
"$ 	c #B09995",
"% 	c #B4A29F",
"& 	c #BAACA9",
"* 	c #C0B5B3",
"= 	c #BE9993",
"- 	c #FFFFFF",
"; 	c #EFE8E9",
"> 	c #E0D1D1",
", 	c #D1BABB",
"' 	c #C2A3A5",
") 	c #B28D8D",
"! 	c #A37776",
"~ 	c #955E5E",
"{ 	c #864947",
"] 	c #D5AEAA",
"^ 	c #FFEDEA",
"/ 	c #FFD2CA",
"( 	c #FFCDC5",
"_ 	c #FFDCD7",
": 	c #FFD3CF",
"< 	c #FFE5E5",
"[ 	c #FDDDD8",
"} 	c #FDC6C4",
"| 	c #FBA6A2",
"1 	c #87484A",
"2 	c #B4B4B4",
"3 	c #EAC7C3",
"4 	c #FFE0DA",
"5 	c #FFC4BD",
"6 	c #FFBFB7",
"7 	c #FFB8B2",
"8 	c #FFB2AD",
"9 	c #FEADA7",
"0 	c #FBACA4",
"a 	c #F9A4A2",
"b 	c #F7A09E",
"c 	c #F49D9B",
"d 	c #BA7F77",
"e 	c #FFE0DD",
"f 	c #FFABA7",
"g 	c #FEA8A3",
"h 	c #FAA5A1",
"i 	c #F7A29E",
"j 	c #F49F9B",
"k 	c #F29B9B",
"l 	c #EF9A98",
"m 	c #EC9393",
"n 	c #915A5D",
"o 	c #9F615E",
"p 	c #FEDDDD",
"q 	c #FDADA6",
"r 	c #F9AAA4",
"s 	c #FA9F9F",
"t 	c #F69D9D",
"u 	c #F39C9A",
"v 	c #F09997",
"w 	c #EE9595",
"x 	c #EB9294",
"y 	c #E88F91",
"z 	c #D98484",
"A 	c #996C6F",
"B 	c #B5B5B5",
"C 	c #BE7775",
"D 	c #FACCC9",
"E 	c #F6A19D",
"F 	c #F39E9C",
"G 	c #EF9C9A",
"H 	c #ED9898",
"I 	c #EC9395",
"J 	c #EA9191",
"K 	c #E78E92",
"L 	c #E48B8F",
"M 	c #E1888C",
"N 	c #C57474",
"O 	c #A27D7D",
"P 	c #CC817F",
"Q 	c #DF9E9E",
"R 	c #F39898",
"S 	c #EF9896",
"T 	c #E78E90",
"U 	c #E48B8D",
"V 	c #E0858A",
"W 	c #DD8488",
"X 	c #DA8185",
"Y 	c #B26569",
"Z 	c #AB8E8F",
"` 	c #A16265",
" .	c #F3C5C4",
"..	c #E88F93",
"+.	c #E58C90",
"@.	c #E38A8E",
"#.	c #E0878B",
"$.	c #DA8186",
"%.	c #D97E85",
"&.	c #D57C83",
"*.	c #D2797D",
"=.	c #A1545C",
"-.	c #B69FA0",
";.	c #92514F",
">.	c #EAA7A7",
",.	c #E38A8A",
"'.	c #E0838A",
").	c #DD8087",
"!.	c #DA7D84",
"~.	c #D67D86",
"{.	c #D57A83",
"].	c #D17881",
"^.	c #CE757E",
"/.	c #CB727B",
"(.	c #8D464E",
"_.	c #BFB0B2",
":.	c #707070",
"<.	c #7E3D43",
"[.	c #85444A",
"}.	c #8C494F",
"|.	c #964D56",
"1.	c #9E535A",
"2.	c #A75863",
"3.	c #AE5D67",
"4.	c #B7626E",
"5.	c #BF6872",
"6.	c #C56E76",
"7.	c #7C3541",
"8.	c #B7AAAC",
"9.	c #AA979A",
"0.	c #9B8488",
"a.	c #8F6E71",
"b.	c #815C60",
"c.	c #74474C",
"d.	c #67343A",
"e.	c #5B2027",
"f.	c #672631",
"    . + @ # $ % & *           ",
"    = - - - ; > , ' ) ! ~ {   ",
"    ] ^ / ( _ _ : < [ } | 1   ",
"  2 3 4 5 6 7 8 9 0 a b c 1   ",
"  d e 7 8 f g h i j k l m n   ",
"  o p q r s t u v w x y z A   ",
"B C D E F G H I J K L M N O   ",
"P Q R S I J T U M V W X Y Z   ",
"`  .x ..+.@.#.W $.%.&.*.=.-.  ",
";.>.,.#.'.).!.~.{.].^./.(._.  ",
":.<.[.}.|.1.2.3.4.5.6.6.7.    ",
"        8.9.0.a.b.c.d.e.f.    "};
