/* XPM */
static char * job_deb_xpm[] = {
"15 12 145 2",
"  	c None",
". 	c #869E9E",
"+ 	c #819595",
"@ 	c #8A9C9C",
"# 	c #93A3A3",
"$ 	c #9CAAAA",
"% 	c #A5B0B0",
"& 	c #AEB7B7",
"* 	c #B7BEBE",
"= 	c #9EB4B4",
"- 	c #FFFFFF",
"; 	c #EAEEED",
"> 	c #D5DDDC",
", 	c #C0CCCA",
"' 	c #ABBBB8",
") 	c #96AAA7",
"! 	c #819996",
"~ 	c #6C8884",
"{ 	c #577773",
"] 	c #B5CBCA",
"^ 	c #EDFEFE",
"/ 	c #CFFBFB",
"( 	c #CDD4DF",
"_ 	c #D9437A",
": 	c #D72767",
"< 	c #D73C75",
"[ 	c #E089AA",
"} 	c #E2F5F5",
"| 	c #D3F0ED",
"1 	c #B9E6E2",
"2 	c #587873",
"3 	c #B4B4B4",
"4 	c #CDE1E0",
"5 	c #E1FAFA",
"6 	c #C8DDE2",
"7 	c #D42163",
"8 	c #CB82A3",
"9 	c #C0E9E6",
"0 	c #BED7DA",
"a 	c #CF3871",
"b 	c #CA5E89",
"c 	c #B5E2DD",
"d 	c #B2DFDA",
"e 	c #88ABAA",
"f 	c #E5F8F7",
"g 	c #C3F0ED",
"h 	c #CF5584",
"i 	c #C1B9C6",
"j 	c #BAE8E4",
"k 	c #C0A6B7",
"l 	c #BBB9C3",
"m 	c #B3CDCF",
"n 	c #CD386F",
"o 	c #AEDAD5",
"p 	c #AAD7D1",
"q 	c #68847F",
"r 	c #6F908D",
"s 	c #E6F7F5",
"t 	c #BCE8E5",
"u 	c #CC5482",
"v 	c #B6E4DE",
"w 	c #BBAFBB",
"x 	c #B5C3C7",
"y 	c #AEDBD6",
"z 	c #ABD4CF",
"A 	c #C84979",
"B 	c #A6D3CC",
"C 	c #9AC5BF",
"D 	c #778F8A",
"E 	c #B5B5B5",
"F 	c #88ADA9",
"G 	c #D6EFED",
"H 	c #B4E1DD",
"I 	c #C6638B",
"J 	c #AFDBD6",
"K 	c #B997AA",
"L 	c #B0B6BC",
"M 	c #AAC6C5",
"N 	c #ACB1B6",
"O 	c #BA708E",
"P 	c #9FCCC4",
"Q 	c #89B2AC",
"R 	c #869A97",
"S 	c #93BAB5",
"T 	c #AFD0CB",
"U 	c #AFDDD7",
"V 	c #ADDAD5",
"W 	c #C6527E",
"X 	c #A7D0CB",
"Y 	c #A8C4C2",
"Z 	c #BD6487",
"` 	c #B77390",
" .	c #B6728E",
"..	c #9AC5BD",
"+.	c #97C5BC",
"@.	c #79A099",
"#.	c #95A5A2",
"$.	c #72938D",
"%.	c #D0E8E5",
"&.	c #A9D6CF",
"*.	c #A6D3CB",
"=.	c #BC6B8D",
"-.	c #B67A94",
";.	c #9ECBC3",
">.	c #9BC8C0",
",.	c #98C5BC",
"'.	c #95C3B9",
").	c #93C0B6",
"!.	c #90BDB4",
"~.	c #688F86",
"{.	c #A5B1AF",
"].	c #60827E",
"^.	c #B8DAD5",
"/.	c #A0CEC7",
"(.	c #9BC7BE",
"_.	c #C04875",
":.	c #99B6B2",
"<.	c #94C1B6",
"[.	c #91BFB4",
"}.	c #8FBCB1",
"|.	c #8CB9AE",
"1.	c #89B6AB",
"2.	c #587C73",
"3.	c #B4BCBA",
"4.	c #707070",
"5.	c #4E6F67",
"6.	c #54766E",
"7.	c #5A7D75",
"8.	c #60857B",
"9.	c #6B8480",
"0.	c #9E506E",
"a.	c #838084",
"b.	c #78A397",
"c.	c #7EAA9F",
"d.	c #84B1A6",
"e.	c #476B60",
"f.	c #AEB5B3",
"g.	c #9CA6A3",
"h.	c #8A9793",
"i.	c #778884",
"j.	c #657974",
"k.	c #536A64",
"l.	c #415B54",
"m.	c #2F4D45",
"n.	c #37584E",
"    . + @ # $ % & *           ",
"    = - - - ; > , ' ) ! ~ {   ",
"    ] ^ / ( _ : < [ } | 1 2   ",
"  3 4 5 6 7 8 9 0 a b c d 2   ",
"  e f g h i j k l m n o p q   ",
"  r s t u v w x y z A B C D   ",
"E F G H I J K L M N O P Q R   ",
"S T U V W X Y Z `  ...+.@.#.  ",
"$.%.&.*.=.-.;.>.,.'.).!.~.{.  ",
"].^./.;.(._.:.<.[.}.|.1.2.3.  ",
"4.5.6.7.8.9.0.a.b.c.d.d.e.    ",
"        f.g.h.i.j.k.l.m.n.    "};
