/* XPM */
static char * job_file_xpm[] = {
"15 12 141 2",
"  	c None",
". 	c #869E9E",
"+ 	c #819595",
"@ 	c #8A9C9C",
"# 	c #93A3A3",
"$ 	c #9CAAAA",
"% 	c #A5B0B0",
"& 	c #AEB7B7",
"* 	c #B7BEBE",
"= 	c #9EB4B4",
"- 	c #FFFFFF",
"; 	c #EAEEED",
"> 	c #D5DDDC",
", 	c #C0CCCA",
"' 	c #ABBBB8",
") 	c #96AAA7",
"! 	c #819996",
"~ 	c #6C8884",
"{ 	c #577773",
"] 	c #B5CBCA",
"^ 	c #EDFEFE",
"/ 	c #CFFBFB",
"( 	c #CCF8F8",
"_ 	c #DFF8F8",
": 	c #DFF7F7",
"< 	c #DAF5F4",
"[ 	c #EAFAF8",
"} 	c #E2F5F5",
"| 	c #D3F0ED",
"1 	c #B9E6E2",
"2 	c #587873",
"3 	c #B4B4B4",
"4 	c #CDE1E0",
"5 	c #E1FAFA",
"6 	c #C8F4F3",
"7 	c #C5F1F0",
"8 	c #C3EFEC",
"9 	c #C0ECE9",
"0 	c #BDE9E6",
"a 	c #BAE6E4",
"b 	c #B8E4DF",
"c 	c #B5E2DD",
"d 	c #B2DFDA",
"e 	c #88ABAA",
"f 	c #E5F8F7",
"g 	c #C3F0ED",
"h 	c #C0EDEA",
"i 	c #BDEAE6",
"j 	c #BAE8E4",
"k 	c #B8E5E1",
"l 	c #B5E2DE",
"m 	c #B2DFDB",
"n 	c #B1DDD7",
"o 	c #AEDAD5",
"p 	c #AAD7D1",
"q 	c #68847F",
"r 	c #6F908D",
"s 	c #E6F7F5",
"t 	c #BCE8E5",
"u 	c #B9E5E2",
"v 	c #B6E4DE",
"w 	c #B4E1DB",
"x 	c #B1DED9",
"y 	c #AEDBD6",
"z 	c #ABD9D2",
"A 	c #A9D6CF",
"B 	c #A6D3CC",
"C 	c #9AC5BF",
"D 	c #778F8A",
"E 	c #B5B5B5",
"F 	c #88ADA9",
"G 	c #D6EFED",
"H 	c #B4E1DD",
"I 	c #B2DED9",
"J 	c #AFDBD6",
"K 	c #ADD9D3",
"L 	c #AAD7D0",
"M 	c #A7D5CE",
"N 	c #A5D2CA",
"O 	c #A2CFC7",
"P 	c #9FCCC4",
"Q 	c #89B2AC",
"R 	c #869A97",
"S 	c #93BAB5",
"T 	c #AFD0CB",
"U 	c #AFDDD7",
"V 	c #ADDAD5",
"W 	c #A5D2CB",
"X 	c #A2CFC8",
"Y 	c #9CCAC1",
"Z 	c #9AC8BF",
"` 	c #97C5BC",
" .	c #79A099",
"..	c #95A5A2",
"+.	c #72938D",
"@.	c #D0E8E5",
"#.	c #A6D3CB",
"$.	c #A3D0C8",
"%.	c #A0CEC5",
"&.	c #9ECBC3",
"*.	c #9BC8C0",
"=.	c #98C5BC",
"-.	c #95C3B9",
";.	c #93C0B6",
">.	c #90BDB4",
",.	c #688F86",
"'.	c #A5B1AF",
").	c #60827E",
"!.	c #B8DAD5",
"~.	c #A0CEC7",
"{.	c #9BCAC0",
"].	c #98C7BD",
"^.	c #95C4BA",
"/.	c #94C1B6",
"(.	c #91BFB4",
"_.	c #8FBCB1",
":.	c #8CB9AE",
"<.	c #89B6AB",
"[.	c #587C73",
"}.	c #B4BCBA",
"|.	c #707070",
"1.	c #4E6F67",
"2.	c #54766E",
"3.	c #5A7D75",
"4.	c #60857B",
"5.	c #668C83",
"6.	c #6C9489",
"7.	c #729B90",
"8.	c #78A397",
"9.	c #7EAA9F",
"0.	c #84B1A6",
"a.	c #476B60",
"b.	c #AEB5B3",
"c.	c #9CA6A3",
"d.	c #8A9793",
"e.	c #778884",
"f.	c #657974",
"g.	c #536A64",
"h.	c #415B54",
"i.	c #2F4D45",
"j.	c #37584E",
"    . + @ # $ % & *           ",
"    = - - - ; > , ' ) ! ~ {   ",
"    ] ^ / ( _ : < [ } | 1 2   ",
"  3 4 5 6 7 8 9 0 a b c d 2   ",
"  e f g h i j k l m n o p q   ",
"  r s t u v w x y z A B C D   ",
"E F G H I J K L M N O P Q R   ",
"S T U V L M W X P Y Z `  ...  ",
"+.@.A #.$.%.&.*.=.-.;.>.,.'.  ",
").!.~.&.{.].^./.(._.:.<.[.}.  ",
"|.1.2.3.4.5.6.7.8.9.0.0.a.    ",
"        b.c.d.e.f.g.h.i.j.    "};
