/* XPM */
static char * job_iso_xpm[] = {
"15 12 146 2",
"  	c None",
". 	c #C2B8B6",
"+ 	c #A68E85",
"@ 	c #9B7C73",
"# 	c #84675E",
"$ 	c #8E7169",
"% 	c #A88E80",
"& 	c #B7ACA7",
"* 	c #C6C0BE",
"= 	c #87635C",
"- 	c #6A362C",
"; 	c #6F4132",
"> 	c #7F5644",
", 	c #8F675A",
"' 	c #A87565",
") 	c #D5A88F",
"! 	c #F3A9C3",
"~ 	c #B89DA2",
"{ 	c #B4B0AC",
"] 	c #BCB3B1",
"^ 	c #663B31",
"/ 	c #5C2E21",
"( 	c #613127",
"_ 	c #69372C",
": 	c #7C503B",
"< 	c #8E6656",
"[ 	c #BF866E",
"} 	c #E6A2B5",
"| 	c #F2D1E2",
"1 	c #E2BA9E",
"2 	c #CD997D",
"3 	c #AFA8A6",
"4 	c #684037",
"5 	c #572C21",
"6 	c #582D1F",
"7 	c #5B2E20",
"8 	c #623126",
"9 	c #744339",
"0 	c #905F59",
"a 	c #BE847D",
"b 	c #F0D6DE",
"c 	c #D39B81",
"d 	c #BD7B65",
"e 	c #B3725D",
"f 	c #A9796A",
"g 	c #9B8580",
"h 	c #5E3228",
"i 	c #5D3125",
"j 	c #5B2F22",
"k 	c #592C1F",
"l 	c #89545E",
"m 	c #C77894",
"n 	c #CB7997",
"o 	c #C48298",
"p 	c #9C675C",
"q 	c #A86551",
"r 	c #A4604A",
"s 	c #A15D46",
"t 	c #9D5943",
"u 	c #A29997",
"v 	c #805851",
"w 	c #69382F",
"x 	c #6A382E",
"y 	c #6F382D",
"z 	c #6F3935",
"A 	c #C1718E",
"B 	c #C5A5AE",
"C 	c #BDB0B1",
"D 	c #C97393",
"E 	c #966065",
"F 	c #924D3A",
"G 	c #904D3A",
"H 	c #8F4E3C",
"I 	c #948784",
"J 	c #71413A",
"K 	c #924B3A",
"L 	c #91503B",
"M 	c #8F5743",
"N 	c #7F4C44",
"O 	c #BB738C",
"P 	c #CC94A6",
"Q 	c #C592A2",
"R 	c #C4708C",
"S 	c #7C4746",
"T 	c #763829",
"U 	c #7B3B2B",
"V 	c #813F2F",
"W 	c #7C3D2D",
"X 	c #9A8F8C",
"Y 	c #78554B",
"Z 	c #95654C",
"` 	c #94695A",
" .	c #A46B62",
"..	c #C98F82",
"+.	c #A4908F",
"@.	c #A46A74",
"#.	c #9E5F6B",
"$.	c #804A48",
"%.	c #673125",
"&.	c #693325",
"*.	c #6B3526",
"=.	c #6F3829",
"-.	c #60362C",
";.	c #B0A39D",
">.	c #98695F",
",.	c #BE7D70",
"'.	c #DBAEA0",
").	c #D3E1DB",
"!.	c #E2C7B7",
"~.	c #C07563",
"{.	c #A84F3D",
"].	c #74382E",
"^.	c #683428",
"/.	c #663325",
"(.	c #683526",
"_.	c #6C3729",
":.	c #917D78",
"<.	c #9E7A6F",
"[.	c #DDB8AE",
"}.	c #D2E2DA",
"|.	c #D8E1DA",
"1.	c #E3A285",
"2.	c #B16D5B",
"3.	c #A84F3E",
"4.	c #7B3C31",
"5.	c #6A362D",
"6.	c #68342A",
"7.	c #673528",
"8.	c #8C7069",
"9.	c #908E87",
"0.	c #B3C5BC",
"a.	c #F0C9B1",
"b.	c #CA7F67",
"c.	c #AD6A56",
"d.	c #A64D3E",
"e.	c #813E33",
"f.	c #6A392F",
"g.	c #73483F",
"h.	c #A59490",
"i.	c #C3BEBD",
"j.	c #A68C7F",
"k.	c #8D645C",
"l.	c #84584B",
"m.	c #8A5750",
"n.	c #9E7D76",
"o.	c #B5A6A3",
"        . + @ # $ % &         ",
"    * = - ; > , ' ) ! ~ {     ",
"  ] ^ / ( _ : < [ } | 1 2 3   ",
"  4 5 6 7 8 9 0 a b c d e f   ",
"g h i j k l m n o p q r s t u ",
"v w x y z A B C D E F G H H I ",
"J K L M N O P Q R S T U V W X ",
"Y Z `  ...+.@.#.$.%.&.*.=.-.  ",
";.>.,.'.).!.~.{.].^./.(._.:.  ",
"  <.[.}.|.1.2.3.4.5.6.7.8.    ",
"    9.0.a.b.c.d.e.f.g.h.      ",
"      i.j.k.l.m.n.o.          "};
