/* XPM */
static char * preferences_xpm[] = {
"24 24 47 1",
" 	c None",
".	c #000000",
"+	c #E7E7E7",
"@	c #CFCFCF",
"#	c #DCCB94",
"$	c #DFDFDF",
"%	c #C7C7C7",
"&	c #8E7D45",
"*	c #C3C3C3",
"=	c #AB5959",
"-	c #DBDBDB",
";	c #868686",
">	c #D7D7D7",
",	c #A84F4F",
"'	c #A6A6A6",
")	c #9A9A9A",
"!	c #F7F7F7",
"~	c #F3F3F3",
"{	c #A65757",
"]	c #6D6D6D",
"^	c #DACACA",
"/	c #AC5757",
"(	c #C48B8B",
"_	c #AA6C6C",
":	c #E9DDDD",
"<	c #A65353",
"[	c #D4C38D",
"}	c #D6D6D0",
"|	c #C0C0BB",
"1	c #828279",
"2	c #AD8E30",
"3	c #756020",
"4	c #C5C5BF",
"5	c #A7A79A",
"6	c #818174",
"7	c #DFE1E1",
"8	c #D6E1E0",
"9	c #060605",
"0	c #A3A395",
"a	c #CBCBCB",
"b	c #8B8B7D",
"c	c #7E7E71",
"d	c #B2B9B6",
"e	c #D9D9D2",
"f	c #D9D9D3",
"g	c #DADAD4",
"h	c #DADAD9",
"                        ",
"                        ",
"                        ",
"            ..          ",
"          ..+@.     .   ",
"        ..@+++.    .#.  ",
"     ...$+++++%.  .#&.  ",
"   ..@++++@+*++. .#&.   ",
"  .$++++=+-+@;+-.#&.    ",
"  .>++++,'+);++.#&.     ",
"   .++!~{+]+++.#&.      ",
"   .$^/(_++++.#&.-.     ",
"    .+:<{+++.#&.@+%.    ",
"    .>+++++.[&.-+}|1.   ",
"     .+++!23..455556.   ",
"     .$+789.005555a.    ",
"      .+5bcdefg+h..     ",
"      .>+++++++a.       ",
"       .++++++..        ",
"       .$+++a.          ",
"        .+-..           ",
"         ..             ",
"                        ",
"                        "};
