/* XPM */
static char * quit_xpm[] = {
"24 24 14 1",
" 	c None",
".	c #000000",
"+	c #E4E4DC",
"@	c #BE7579",
"#	c #C67D81",
"$	c #2C2C2C",
"%	c #8A4D4F",
"&	c #9E575B",
"*	c #A75E5F",
"=	c #AF6668",
"-	c #B66D71",
";	c #CD8689",
">	c #848484",
",	c #080808",
"                        ",
"                        ",
"                        ",
"                        ",
"                        ",
"           .........    ",
"           .++++++..    ",
"           .++++++..    ",
"         ...++++++..    ",
"         .@.++++++..    ",
"    ......@#.++$.+..    ",
"    .%&*=-@#;.+.$+..    ",
"    .%&*=-@#;.++++..    ",
"    ......@#.+++++..    ",
"         .@.++++++..    ",
"         ...+++++>..    ",
"           .+++>....    ",
"           .+>......    ",
"           ...,,,,,,    ",
"                        ",
"                        ",
"                        ",
"                        ",
"                        "};
